<svg width="93" height="100" viewBox="0 0 93 100" fill="none" xmlns="http://www.w3.org/2000/svg">
<path d="M29.6481 46.6208V39.8622C29.6481 38.966 30.0032 38.1064 30.6353 37.4727C31.2674 36.8389 32.1246 36.4829 33.0185 36.4829C33.9124 36.4829 34.7697 36.8389 35.4017 37.4727C36.0338 38.1064 36.3889 38.966 36.3889 39.8622V46.6208C36.3889 47.5171 36.0338 48.3766 35.4017 49.0103C34.7697 49.6441 33.9124 50.0001 33.0185 50.0001C32.1246 50.0001 31.2674 49.6441 30.6353 49.0103C30.0032 48.3766 29.6481 47.5171 29.6481 46.6208ZM56.6111 39.8622V46.6208C56.6111 47.5171 56.9662 48.3766 57.5983 49.0103C58.2303 49.6441 59.0876 50.0001 59.9815 50.0001C60.8754 50.0001 61.7326 49.6441 62.3647 49.0103C62.9968 48.3766 63.3519 47.5171 63.3519 46.6208V39.8622C63.3519 38.966 62.9968 38.1064 62.3647 37.4727C61.7326 36.8389 60.8754 36.4829 59.9815 36.4829C59.0876 36.4829 58.2303 36.8389 57.5983 37.4727C56.9662 38.1064 56.6111 38.966 56.6111 39.8622ZM70.0926 76.3587C70.213 76.9416 70.1777 77.546 69.9904 78.1108C69.803 78.6757 69.4701 79.1809 69.0254 79.5753C68.5807 79.9697 68.0401 80.2393 67.4581 80.3569C66.8761 80.4745 66.2734 80.4358 65.7111 80.2449L46.5 73.8242L27.3563 80.2111C26.7934 80.4152 26.1864 80.4654 25.5978 80.3564C25.0091 80.2473 24.46 79.9831 24.007 79.5908C23.554 79.1985 23.2133 78.6923 23.0201 78.1243C22.8268 77.5562 22.7879 76.9468 22.9074 76.3587L24.5926 67.9104C24.7204 67.2588 25.0369 66.6593 25.5026 66.187L33.9285 57.7387C34.2514 57.4173 34.6359 57.1648 35.0587 56.9964C35.4816 56.828 35.934 56.7471 36.3889 56.7587H56.6111C57.0547 56.7562 57.4944 56.8414 57.905 57.0096C58.3157 57.1777 58.6891 57.4255 59.0041 57.7387L67.43 66.187C67.8957 66.6593 68.2122 67.2588 68.34 67.9104L70.0926 76.3587ZM62.3407 71.9656L62.0037 70.2421L55.263 63.4835H37.7707L31.03 70.2421L30.693 71.9656L45.4215 67.0318H45.7922L46.5 66.8966H47.2078H47.5785L62.3407 71.9656ZM36.3889 26.345H56.6111C57.505 26.345 58.3623 25.989 58.9943 25.3552C59.6264 24.7215 59.9815 23.862 59.9815 22.9657C59.9815 22.0695 59.6264 21.2099 58.9943 20.5762C58.3623 19.9424 57.505 19.5864 56.6111 19.5864H36.3889C35.495 19.5864 34.6377 19.9424 34.0057 20.5762C33.3736 21.2099 33.0185 22.0695 33.0185 22.9657C33.0185 23.862 33.3736 24.7215 34.0057 25.3552C34.6377 25.989 35.495 26.345 36.3889 26.345ZM92 44.9312V48.3105C91.9903 51.2997 90.9927 54.2013 89.1632 56.5615C87.3337 58.9217 84.7755 60.6073 81.8889 61.3546V71.9656C81.8889 79.1356 79.0482 86.0119 73.9916 91.0818C68.9351 96.1517 62.077 99 54.9259 99H38.0741C30.9231 99 24.0649 96.1517 19.0084 91.0818C13.9518 86.0119 11.1111 79.1356 11.1111 71.9656V61.3546C8.22447 60.6073 5.6663 58.9217 3.8368 56.5615C2.00731 54.2013 1.00968 51.2997 1 48.3105V44.9312C1.00223 41.9362 1.99643 39.0268 3.82651 36.6597C5.65659 34.2926 8.2189 32.602 11.1111 31.8533C11.8465 23.4097 15.7195 15.5516 21.9623 9.83682C28.205 4.12209 36.3616 0.968111 44.8148 1.00024H48.1852C56.6384 0.968111 64.795 4.12209 71.0378 9.83682C77.2805 15.5516 81.1535 23.4097 81.8889 31.8533C84.7811 32.602 87.3434 34.2926 89.1735 36.6597C91.0036 39.0268 91.9978 41.9362 92 44.9312ZM11.1111 54.1567V39.085C10.0874 39.6776 9.23712 40.5297 8.64555 41.5558C8.05399 42.5819 7.74195 43.746 7.74074 44.9312V48.3105C7.74195 49.4957 8.05399 50.6597 8.64555 51.6858C9.23712 52.712 10.0874 53.5641 11.1111 54.1567ZM75.1481 58.4484V34.7933C75.1481 27.6233 72.3074 20.747 67.2509 15.677C62.1943 10.6071 55.3362 7.75885 48.1852 7.75885H44.8148C37.6638 7.75885 30.8057 10.6071 25.7491 15.677C20.6926 20.747 17.8519 27.6233 17.8519 34.7933V71.9656C17.8519 77.3431 19.9824 82.5003 23.7748 86.3028C27.5672 90.1052 32.7108 92.2414 38.0741 92.2414H54.9259C60.2892 92.2414 65.4328 90.1052 69.2252 86.3028C73.0176 82.5003 75.1481 77.3431 75.1481 71.9656V58.4484ZM85.2593 44.9312C85.258 43.746 84.946 42.5819 84.3544 41.5558C83.7629 40.5297 82.9126 39.6776 81.8889 39.085V54.1567C82.9126 53.5641 83.7629 52.712 84.3544 51.6858C84.946 50.6597 85.258 49.4957 85.2593 48.3105V44.9312Z" fill="black" stroke="white" stroke-width="2"/>
</svg>
